Coordinates
version=1
nRows=9
nColumns=36
inDegrees=yes

Units are S.I. units (second, meters, Newtons, ...)
If the header above contains a line with 'inDegrees', this indicates whether rotational values are in degrees (yes) or radians (no).

endheader
time	pelvis_tilt	pelvis_list	pelvis_rotation	pelvis_tx	pelvis_ty	pelvis_tz	hip_flexion_r	hip_adduction_r	hip_rotation_r	knee_angle_r	knee_angle_r_beta	ankle_angle_r	subtalar_angle_r	mtp_angle_r	hip_flexion_l	hip_adduction_l	hip_rotation_l	knee_angle_l	knee_angle_l_beta	ankle_angle_l	subtalar_angle_l	mtp_angle_l	lumbar_extension	lumbar_bending	lumbar_rotation	arm_flex_r	arm_add_r	arm_rot_r	elbow_flex_r	pro_sup_r	arm_flex_l	arm_add_l	arm_rot_l	elbow_flex_l	pro_sup_l
      0.00000000	     -3.17188250	     -5.81300327	      6.98778099	     -0.00949758	      0.92993902	     -0.26501168	     25.91574537	      3.96330422	     -3.82327690	      9.91832522	      0.17310743	    -10.03406007	    -12.36739087	     -5.51937404	    -11.27121970	    -12.11305293	     -1.17356219	     27.39407842	      0.47811686	      1.09698741	      0.66153455	     -5.51937404	     -5.05459444	      2.84025361	    -11.96339702	     -3.16108765	     -7.71689465	     -2.02224762	     62.62325541	    109.06420387	      8.74262668	    -17.99479044	     -8.02587583	     45.66348486	    105.09385591
      0.01000000	     -3.20452210	     -6.34358586	      7.01155051	      0.00378079	      0.93138469	     -0.26254116	     25.83992390	      4.67651032	     -4.26289916	     11.31624714	      0.19750577	     -8.85597044	    -12.48938635	     -5.58877497	     -9.28206046	    -12.68817662	     -0.20841501	     31.50093819	      0.54979509	     -2.16676389	     -2.56956870	     -5.58877497	     -5.13187946	      3.71442822	    -11.52716557	     -2.98414759	     -7.83326638	     -1.99359202	     62.45188926	    109.02913253	      8.38791305	    -17.54772391	     -7.63752939	     45.92124674	    105.24154145
      0.02000000	     -3.16541303	     -6.86529857	      7.01982957	      0.01705263	      0.93285700	     -0.26013735	     25.60988170	      5.38007917	     -4.84561432	     12.55349215	      0.21909977	     -7.42562681	    -12.19882970	     -5.67396858	     -7.40703010	    -13.19992209	      0.71784347	     35.44180586	      0.61857621	     -5.67435419	     -5.75919022	     -5.67396858	     -5.27609347	      4.57428303	    -11.04799242	     -2.76929999	     -7.96424067	     -1.95664960	     62.30137803	    109.01631839	      8.04953549	    -17.07835155	     -7.22784990	     46.13865566	    105.37510995
      0.03000000	     -3.15925899	     -7.34917072	      6.99106148	      0.03022174	      0.93422206	     -0.25783296	     25.29902193	      6.05074189	     -5.40417885	     13.56102276	      0.23668450	     -6.16665375	    -11.86632945	     -5.74810958	     -5.45957052	    -13.63143393	      1.52692981	     39.35817044	      0.68692966	     -8.34250436	     -8.07783935	     -5.74810958	     -5.37915030	      5.38367373	    -10.51062987	     -2.56602966	     -8.12025423	     -1.89854375	     62.22891720	    109.03007890	      7.69140931	    -16.59411912	     -6.79532563	     46.36823712	    105.48176533
      0.04000000	     -3.17777683	     -7.74319014	      6.89712320	      0.04314782	      0.93562844	     -0.25549731	     24.88568064	      6.65953899	     -5.91479093	     14.29200660	      0.24944257	     -5.06391696	    -11.47662516	     -5.80272835	     -3.46204079	    -13.89176297	      2.28027407	     43.18039786	      0.75364011	    -10.07247679	     -9.86072468	     -5.80272835	     -5.50037735	      6.04623209	     -9.88962994	     -2.32323384	     -8.22961745	     -1.76801945	     62.18792553	    109.05984086	      7.34803686	    -16.12800817	     -6.33438264	     46.58114365	    105.56924802
      0.05000000	     -3.04769797	     -8.09543625	      6.77393804	      0.05611540	      0.93730822	     -0.25329528	     24.07405564	      7.30286430	     -6.22418794	     14.59134732	      0.25466705	     -4.02263696	    -11.25383430	     -5.83183623	     -1.65254432	    -14.11131297	      2.79355701	     46.82445663	      0.81724094	    -10.76900050	    -11.00320931	     -5.83183623	     -5.71820248	      6.66498724	     -9.18262082	     -2.01764056	     -8.40290687	     -1.64113461	     62.09883080	    109.08340813	      6.98062155	    -15.61690911	     -5.88215981	     46.77848012	    105.64012449
      0.06000000	     -2.99364621	     -8.27248871	      6.59519131	      0.06872797	      0.93906563	     -0.25110075	     23.26907111	      7.76891459	     -6.47426480	     14.75854690	      0.25758524	     -3.07001313	    -10.87832710	     -5.85503873	      0.25903348	    -14.03726522	      3.28882384	     50.29718296	      0.87785145	    -10.78421926	    -12.04176151	     -5.85503873	     -5.91503989	      7.02813032	     -8.39748973	     -1.66643839	     -8.50368470	     -1.44269008	     61.95438815	    109.11211062	      6.64362625	    -15.13934361	     -5.38827094	     46.93355760	    105.70645979
      0.07000000	     -3.05610941	     -8.25563405	      6.39587965	      0.08101934	      0.94082015	     -0.24900657	     22.61742133	      7.94504634	     -7.05056326	     15.03991179	      0.26249598	     -1.58800796	     -9.46728201	     -5.93108435	      2.32665315	    -13.66805554	      3.72186386	     53.58273224	      0.93519510	    -10.18208299	    -12.65485324	     -5.93108435	     -5.96002752	      7.11172559	     -7.59799418	     -1.26961835	     -8.56545423	     -1.16448956	     61.73143782	    109.20654010	      6.35365639	    -14.78535062	     -4.61082837	     46.88867999	    105.76662993
      0.08000000	     -2.76432885	     -8.01622424	      6.08506841	      0.09316425	      0.94340171	     -0.24668874	     21.36528652	      8.08487949	     -6.98154940	     14.89940606	      0.26004369	     -1.19559803	     -9.33707399	     -5.93800851	      3.83461123	    -13.11877868	      3.75303411	     56.33627997	      0.98325357	     -9.84832749	    -13.11236656	     -5.93800851	     -6.54882576	      6.89321241	     -6.62155665	     -0.74412042	     -8.47337869	     -0.95962388	     61.55148710	    109.21772989	      6.17450862	    -14.35859611	     -4.36951573	     46.98763991	    105.79410940
